<?xml version="1.0" standalone="no"?><!DOCTYPE svg PUBLIC "-//W3C//DTD SVG 1.1//EN" "http://www.w3.org/Graphics/SVG/1.1/DTD/svg11.dtd"><svg t="1740579829490" class="icon" viewBox="0 0 1370 1024" version="1.1" xmlns="http://www.w3.org/2000/svg" p-id="5201" width="42.8125" height="32" xmlns:xlink="http://www.w3.org/1999/xlink"><path d="M1354.682325 614.514222a282.699387 282.699387 0 0 0-181.898495-177.900725 298.119353 298.119353 0 0 0-51.970998-9.994423 241.008366 241.008366 0 0 0-24.843279 0h-49.401004a299.261573 299.261573 0 0 0-266.70831 297.833798h-115.935304l142.777468 161.909649 142.777468-161.909649h-114.221975a242.150586 242.150586 0 0 1 215.308422-241.008366h61.965421a215.308422 215.308422 0 0 1 40.834356 7.995539 224.731735 224.731735 0 0 1 145.633017 142.777468 235.297267 235.297267 0 0 1 12.564417 75.957612v30.554379a225.588399 225.588399 0 0 1-192.178472 225.302844H256.723596a224.731735 224.731735 0 0 1-199.888455-225.873954v-30.839933a225.017289 225.017289 0 0 1 199.888455-226.15951 102.228667 102.228667 0 0 0 93.090909-97.945343v-10.851087A344.379253 344.379253 0 0 1 687.340439 57.110987a328.388176 328.388176 0 0 1 237.581707 102.228667 354.65923 354.65923 0 0 1 48.258784 62.536531 28.555494 28.555494 0 0 0 49.115449-28.555493 409.485778 409.485778 0 0 0-57.110987-72.816509A385.784718 385.784718 0 0 0 687.340439 0a402.06135 402.06135 0 0 0-391.495817 369.508087 48.544339 48.544339 0 0 1 0 6.282209v5.139988a45.403235 45.403235 0 0 1-42.547685 45.403235A282.128277 282.128277 0 0 0 0.009709 709.318461v30.554378a282.984941 282.984941 0 0 0 251.573898 282.984941H1127.951706a282.128277 282.128277 0 0 0 232.441717-205.028444 290.98048 290.98048 0 0 0 9.994423-76.814277v-31.696598a289.552705 289.552705 0 0 0-15.705521-94.804239z" fill="#1296db" p-id="5202"></path></svg>